<?xml version="1.0" encoding="iso-8859-1"?>
<!-- Uploaded to: SVG Repo, www.svgrepo.com, Generator: SVG Repo Mixer Tools -->
<svg fill="#000000" height="800px" width="800px" version="1.1" id="Layer_1" xmlns="http://www.w3.org/2000/svg" xmlns:xlink="http://www.w3.org/1999/xlink" 
	 viewBox="0 0 492.216 492.216" xml:space="preserve">
<g>
	<g>
		<polygon points="189.861,170.159 189.861,97.327 170.168,97.327 170.168,170.159 97.332,170.159 97.332,189.851 170.168,189.851 
			170.168,262.683 189.861,262.683 189.861,189.851 262.697,189.851 262.697,170.159 		"/>
	</g>
</g>
<g>
	<g>
		<path d="M478.389,411.553L336.177,269.336c39.296-68.767,29.817-158.04-28.816-216.677c-70.212-70.212-184.481-70.212-254.692,0
			c-70.212,70.216-70.212,184.476,0,254.692c35.106,35.106,81.231,52.663,127.346,52.663c30.909,0,61.741-8.078,89.338-23.85
			l142.21,142.21c8.923,8.928,20.788,13.841,33.413,13.841c12.615,0,24.481-4.914,33.413-13.841
			C496.813,459.952,496.813,429.976,478.389,411.553z M66.591,293.428c-62.538-62.543-62.538-164.303,0-226.846
			c31.269-31.269,72.346-46.904,113.423-46.904s82.154,15.635,113.423,46.904c62.538,62.543,62.538,164.303,0,226.846
			C230.889,355.957,129.139,355.966,66.591,293.428z M464.466,464.452c-10.433,10.418-28.587,10.409-38.981,0L286.221,325.187
			c7.356-5.386,14.498-11.194,21.14-17.836c6.644-6.644,12.453-13.787,17.84-21.145l139.266,139.27
			C475.207,436.221,475.207,453.707,464.466,464.452z"/>
	</g>
</g>
</svg>